# xmcd CD database file
#
# Track frame offsets:
#	150
#	22522
#	52621
#	91491
#	145514
#	184769
#	227785
#	267035
#
# Disc length: 4145 seconds
#
# Revision: 0
# Processed by: cddbd v1.5.1PL0 Copyright (c) Steve Scherf et al.
# Submitted via: CDex 1.51
#
DISCID=52102f08
DTITLE=Gary Burton Quintet - Generations Live
DYEAR=2004
DGENRE=Jazz
TTITLE0=First Impressions
TTITLE1=Early
TTITLE2=Wheatland
TTITLE3=Test Of Time
TTITLE4=Ladies In Mercedes
TTITLE5=Bagg's Groove
TTITLE6=unknown
TTITLE7=unknown
EXTD=YEAR: 2004
EXTT0=
EXTT1=
EXTT2=
EXTT3=
EXTT4=
EXTT5=
EXTT6=
EXTT7=
PLAYORDER=
